<svg xmlns="http://www.w3.org/2000/svg" height="48" viewBox="0 -960 960 960" width="48" fill="yellow"><path d="M469.5-809v-85h22v85h-22Zm0 743v-85h22v85h-22Zm340-403v-22h85v22h-85Zm-743 0v-22h85v22h-85Zm660-241-16-17 53-52 15 16-52 53Zm-529 529-15-16 52-53 16 16-53 53Zm566 0-53-53 16-16 52 53-15 16Zm-529-529-52-53 15-16 53 52-16 17Zm245.471 413Q403-297 350.25-350.029q-52.75-53.03-52.75-130.5 0-76.471 52.779-129.971 52.78-53.5 129.75-53.5Q557-664 610.75-610.471q53.75 53.53 53.75 130Q664.5-403 610.721-350q-53.78 53-130.75 53Z"/></svg>